# 3ds Max Wavefront OBJ Exporter v0.97b - (c)2007 guruware
# File Created: 07.09.2017 17:17:16

mtllib Flag.mtl

#
# object Plane003
#

v  -776972.3125 813983.8125 1137907.1250
v  -776972.3125 664573.3125 1137907.1250
v  -784390.3750 664573.3125 1134206.5000
v  -784390.3750 813983.8125 1134206.5000
v  -633063.3750 813983.8125 1135748.0000
v  -633063.3750 664573.3125 1135748.0000
v  -663587.5625 664573.3125 1128293.8750
v  -663587.5625 813983.8125 1128293.8750
v  -717925.1250 813983.8125 1134206.5000
v  -717925.1250 664573.3125 1134206.5000
v  -725343.1875 664573.3125 1137907.1250
v  -725343.1875 813983.8125 1137907.1250
v  -869252.1250 664573.3125 1150785.1250
v  -869252.1250 813983.8125 1150785.1250
v  -836019.5000 813983.8125 1134206.5000
v  -836019.5000 664573.3125 1134206.5000
v  -700414.5000 664573.3125 1127825.8750
v  -700414.5000 813983.8125 1127825.8750
v  -759762.6250 664573.3125 1143630.6250
v  -759762.6250 813983.8125 1143630.6250
v  -801600.0625 813983.8125 1128482.8750
v  -801600.0625 664573.3125 1128482.8750
v  -682302.0000 664573.3125 1125855.0000
v  -682302.0000 813983.8125 1125855.0000
v  -742552.8750 664573.3125 1143630.6250
v  -742552.8750 813983.8125 1143630.6250
v  -818809.8125 813983.8125 1128482.8750
v  -818809.8125 664573.3125 1128482.8750
# 28 vertices

vn 0.4196 -0.0000 -0.9077
vn 0.2638 -0.0000 -0.9646
vn 0.2045 -0.0000 -0.9789
vn -0.4336 -0.0000 -0.9011
vn -0.4196 -0.0000 -0.9077
vn -0.4878 -0.0000 -0.8730
vn -0.2516 -0.0000 -0.9678
vn 0.1773 -0.0000 -0.9842
vn 0.0118 -0.0000 -0.9999
vn -0.1773 -0.0000 -0.9842
# 10 vertex normals

vt 0.3907 0.0000 0.0000
vt 0.3907 1.0000 0.0000
vt 0.3593 1.0000 0.0000
vt 0.3593 0.0000 0.0000
vt 1.0000 0.0000 0.0000
vt 1.0000 1.0000 0.0000
vt 0.8708 1.0000 0.0000
vt 0.8708 0.0000 0.0000
vt 0.6407 0.0000 0.0000
vt 0.6407 1.0000 0.0000
vt 0.6093 1.0000 0.0000
vt 0.6093 0.0000 0.0000
vt 0.0000 1.0000 0.0000
vt 0.0000 0.0000 0.0000
vt 0.1407 0.0000 0.0000
vt 0.1407 1.0000 0.0000
vt 0.7174 1.0000 0.0000
vt 0.7174 0.0000 0.0000
vt 0.4636 1.0000 0.0000
vt 0.4636 0.0000 0.0000
vt 0.2864 0.0000 0.0000
vt 0.2864 1.0000 0.0000
vt 0.7941 1.0000 0.0000
vt 0.7941 0.0000 0.0000
vt 0.5364 1.0000 0.0000
vt 0.5364 0.0000 0.0000
vt 0.2136 0.0000 0.0000
vt 0.2136 1.0000 0.0000
# 28 texture coords

g Plane003
usemtl 07___Default
s 1
f -28/-28/-10 -27/-27/-10 -26/-26/-10 -25/-25/-10 
f -24/-24/-9 -23/-23/-9 -22/-22/-8 -21/-21/-8 
f -20/-20/-7 -19/-19/-7 -18/-18/-6 -17/-17/-6 
usemtl 03___Default
f -16/-16/-5 -15/-15/-5 -14/-14/-6 -13/-13/-6 
usemtl _crayfishdiffuse
f -12/-12/-4 -19/-19/-7 -20/-20/-7 -11/-11/-4 
usemtl 03___Default
f -10/-10/-3 -27/-27/-10 -28/-28/-10 -9/-9/-3 
usemtl 07___Default
f -8/-8/-3 -25/-25/-10 -26/-26/-10 -7/-7/-3 
usemtl _crayfishdiffuse
f -6/-6/-2 -12/-12/-4 -11/-11/-4 -5/-5/-2 
usemtl 03___Default
f -22/-22/-8 -6/-6/-2 -5/-5/-2 -21/-21/-8 
f -4/-4/-1 -10/-10/-3 -9/-9/-3 -3/-3/-1 
usemtl 07___Default
f -18/-18/-6 -4/-4/-1 -3/-3/-1 -17/-17/-6 
usemtl _crayfishdiffuse
f -2/-2/-1 -8/-8/-3 -7/-7/-3 -1/-1/-1 
f -14/-14/-6 -2/-2/-1 -1/-1/-1 -13/-13/-6 
# 13 polygons

#
# object Cylinder002
#

v  -633046.3750 387949.1563 1135391.0000
v  -630540.6875 387949.1563 1133288.5000
v  -629972.6875 387949.1563 1134272.2500
v  -629775.4375 387949.1563 1135391.0000
v  -632478.3750 387949.1563 1132169.7500
v  -631410.8750 387949.1563 1132558.2500
v  -634681.8750 387949.1563 1132558.2500
v  -633614.3750 387949.1563 1132169.7500
v  -636120.0625 387949.1563 1134272.2500
v  -635552.0625 387949.1563 1133288.5000
v  -636120.0625 387949.1563 1136509.7500
v  -636317.3125 387949.1563 1135391.0000
v  -634681.8750 387949.1563 1138223.7500
v  -635552.0625 387949.1563 1137493.5000
v  -632478.3750 387949.1563 1138612.2500
v  -633614.3750 387949.1563 1138612.2500
v  -630540.6875 387949.1563 1137493.5000
v  -631410.8750 387949.1563 1138223.7500
v  -629972.6875 387949.1563 1136509.7500
v  -629972.6875 474016.5625 1134272.2500
v  -629775.4375 474016.5625 1135391.0000
v  -630540.6875 474016.5625 1133288.5000
v  -631410.8750 474016.5625 1132558.2500
v  -632478.3750 474016.5625 1132169.7500
v  -633614.3750 474016.5625 1132169.7500
v  -634681.8750 474016.5625 1132558.2500
v  -635552.0625 474016.5625 1133288.5000
v  -636120.0625 474016.5625 1134272.2500
v  -636317.3125 474016.5625 1135391.0000
v  -636120.0625 474016.5625 1136509.7500
v  -635552.0625 474016.5625 1137493.5000
v  -634681.8750 474016.5625 1138223.7500
v  -633614.3750 474016.5625 1138612.2500
v  -632478.3750 474016.5625 1138612.2500
v  -631410.8750 474016.5625 1138223.7500
v  -630540.6875 474016.5625 1137493.5000
v  -629972.6875 474016.5625 1136509.7500
v  -629972.6875 560084.0000 1134272.2500
v  -629775.4375 560084.0000 1135391.0000
v  -630540.6875 560084.0000 1133288.5000
v  -631410.8750 560084.0000 1132558.2500
v  -632478.3750 560084.0000 1132169.7500
v  -633614.3750 560084.0000 1132169.7500
v  -634681.8750 560084.0000 1132558.2500
v  -635552.0625 560084.0000 1133288.5000
v  -636120.0625 560084.0000 1134272.2500
v  -636317.3125 560084.0000 1135391.0000
v  -636120.0625 560084.0000 1136509.7500
v  -635552.0625 560084.0000 1137493.5000
v  -634681.8750 560084.0000 1138223.7500
v  -633614.3750 560084.0000 1138612.2500
v  -632478.3750 560084.0000 1138612.2500
v  -631410.8750 560084.0000 1138223.7500
v  -630540.6875 560084.0000 1137493.5000
v  -629972.6875 560084.0000 1136509.7500
v  -629972.6875 646151.3750 1134272.2500
v  -629775.4375 646151.3750 1135391.0000
v  -630540.6875 646151.3750 1133288.5000
v  -631410.8750 646151.3750 1132558.2500
v  -632478.3750 646151.3750 1132169.7500
v  -633614.3750 646151.3750 1132169.7500
v  -634681.8750 646151.3750 1132558.2500
v  -635552.0625 646151.3750 1133288.5000
v  -636120.0625 646151.3750 1134272.2500
v  -636317.3125 646151.3750 1135391.0000
v  -636120.0625 646151.3750 1136509.7500
v  -635552.0625 646151.3750 1137493.5000
v  -634681.8750 646151.3750 1138223.7500
v  -633614.3750 646151.3750 1138612.2500
v  -632478.3750 646151.3750 1138612.2500
v  -631410.8750 646151.3750 1138223.7500
v  -630540.6875 646151.3750 1137493.5000
v  -629972.6875 646151.3750 1136509.7500
v  -629972.6875 732218.7500 1134272.2500
v  -629775.4375 732218.7500 1135391.0000
v  -630540.6875 732218.7500 1133288.5000
v  -631410.8750 732218.7500 1132558.2500
v  -632478.3750 732218.7500 1132169.7500
v  -633614.3750 732218.7500 1132169.7500
v  -634681.8750 732218.7500 1132558.2500
v  -635552.0625 732218.7500 1133288.5000
v  -636120.0625 732218.7500 1134272.2500
v  -636317.3125 732218.7500 1135391.0000
v  -636120.0625 732218.7500 1136509.7500
v  -635552.0625 732218.7500 1137493.5000
v  -634681.8750 732218.7500 1138223.7500
v  -633614.3750 732218.7500 1138612.2500
v  -632478.3750 732218.7500 1138612.2500
v  -631410.8750 732218.7500 1138223.7500
v  -630540.6875 732218.7500 1137493.5000
v  -629972.6875 732218.7500 1136509.7500
v  -629972.6875 818286.1875 1134272.2500
v  -629775.4375 818286.1875 1135391.0000
v  -630540.6875 818286.1875 1133288.5000
v  -631410.8750 818286.1875 1132558.2500
v  -632478.3750 818286.1875 1132169.7500
v  -633614.3750 818286.1875 1132169.7500
v  -634681.8750 818286.1875 1132558.2500
v  -635552.0625 818286.1875 1133288.5000
v  -636120.0625 818286.1875 1134272.2500
v  -636317.3125 818286.1875 1135391.0000
v  -636120.0625 818286.1875 1136509.7500
v  -635552.0625 818286.1875 1137493.5000
v  -634681.8750 818286.1875 1138223.7500
v  -633614.3750 818286.1875 1138612.2500
v  -632478.3750 818286.1875 1138612.2500
v  -631410.8750 818286.1875 1138223.7500
v  -630540.6875 818286.1875 1137493.5000
v  -629972.6875 818286.1875 1136509.7500
v  -633046.3750 818286.1875 1135391.0000
# 110 vertices

vn 0.0000 -1.0000 -0.0000
vn 1.0000 0.0000 0.0000
vn 0.9397 0.0000 -0.3420
vn 0.7660 0.0000 -0.6428
vn 0.5000 0.0000 -0.8660
vn 0.1736 0.0000 -0.9848
vn -0.1736 0.0000 -0.9848
vn -0.5000 0.0000 -0.8660
vn -0.7660 0.0000 -0.6428
vn -0.9397 0.0000 -0.3420
vn -1.0000 0.0000 -0.0000
vn -0.9397 0.0000 0.3420
vn -0.7660 0.0000 0.6428
vn -0.5000 0.0000 0.8660
vn -0.1736 0.0000 0.9848
vn 0.1736 0.0000 0.9848
vn 0.5000 0.0000 0.8660
vn 0.7660 0.0000 0.6428
vn 0.9397 0.0000 0.3420
vn 1.0000 -0.0000 0.0000
vn 0.5000 -0.0000 -0.8660
vn -0.1736 -0.0000 -0.9848
vn -0.7660 -0.0000 -0.6428
vn -0.9397 -0.0000 -0.3420
vn -1.0000 -0.0000 -0.0000
vn -0.7660 -0.0000 0.6428
vn -0.5000 -0.0000 0.8660
vn 0.1736 -0.0000 0.9848
vn 0.7660 -0.0000 0.6428
vn 0.9397 -0.0000 0.3420
vn 0.9397 -0.0000 -0.3420
vn 0.7660 -0.0000 -0.6428
vn 0.1736 -0.0000 -0.9848
vn -0.5000 -0.0000 -0.8660
vn -0.9397 -0.0000 0.3420
vn -0.1736 -0.0000 0.9848
vn 0.5000 -0.0000 0.8660
vn 0.0000 1.0000 -0.0000
# 38 vertex normals

vt 0.5000 0.0000 0.0000
vt 0.8611 0.0000 1.0000
vt 0.8056 0.0000 1.0000
vt 0.7500 0.0000 1.0000
vt 0.9722 0.0000 1.0000
vt 0.9167 0.0000 1.0000
vt 0.0833 0.0000 1.0000
vt 0.0278 0.0000 1.0000
vt -0.0278 0.0000 1.0000
vt 0.1944 0.0000 1.0000
vt 0.1389 0.0000 1.0000
vt 0.3056 0.0000 1.0000
vt 0.2500 0.0000 1.0000
vt 0.4167 0.0000 1.0000
vt 0.3611 0.0000 1.0000
vt 0.5278 0.0000 1.0000
vt 0.4722 0.0000 1.0000
vt 0.6389 0.0000 1.0000
vt 0.5833 0.0000 1.0000
vt 0.6944 0.0000 1.0000
vt 0.8056 0.2000 1.0000
vt 0.7500 0.2000 1.0000
vt 0.8611 0.2000 1.0000
vt 0.9167 0.2000 1.0000
vt 0.9722 0.2000 1.0000
vt 0.0278 0.2000 1.0000
vt -0.0278 0.2000 1.0000
vt 0.0833 0.2000 1.0000
vt 0.1389 0.2000 1.0000
vt 0.1944 0.2000 1.0000
vt 0.2500 0.2000 1.0000
vt 0.3056 0.2000 1.0000
vt 0.3611 0.2000 1.0000
vt 0.4167 0.2000 1.0000
vt 0.4722 0.2000 1.0000
vt 0.5278 0.2000 1.0000
vt 0.5833 0.2000 1.0000
vt 0.6389 0.2000 1.0000
vt 0.6944 0.2000 1.0000
vt 0.8056 0.4000 1.0000
vt 0.7500 0.4000 1.0000
vt 0.8611 0.4000 1.0000
vt 0.9167 0.4000 1.0000
vt 0.9722 0.4000 1.0000
vt 0.0278 0.4000 1.0000
vt -0.0278 0.4000 1.0000
vt 0.0833 0.4000 1.0000
vt 0.1389 0.4000 1.0000
vt 0.1944 0.4000 1.0000
vt 0.2500 0.4000 1.0000
vt 0.3056 0.4000 1.0000
vt 0.3611 0.4000 1.0000
vt 0.4167 0.4000 1.0000
vt 0.4722 0.4000 1.0000
vt 0.5278 0.4000 1.0000
vt 0.5833 0.4000 1.0000
vt 0.6389 0.4000 1.0000
vt 0.6944 0.4000 1.0000
vt 0.8056 0.6000 1.0000
vt 0.7500 0.6000 1.0000
vt 0.8611 0.6000 1.0000
vt 0.9167 0.6000 1.0000
vt 0.9722 0.6000 1.0000
vt 0.0278 0.6000 1.0000
vt -0.0278 0.6000 1.0000
vt 0.0833 0.6000 1.0000
vt 0.1389 0.6000 1.0000
vt 0.1944 0.6000 1.0000
vt 0.2500 0.6000 1.0000
vt 0.3056 0.6000 1.0000
vt 0.3611 0.6000 1.0000
vt 0.4167 0.6000 1.0000
vt 0.4722 0.6000 1.0000
vt 0.5278 0.6000 1.0000
vt 0.5833 0.6000 1.0000
vt 0.6389 0.6000 1.0000
vt 0.6944 0.6000 1.0000
vt 0.8056 0.8000 1.0000
vt 0.7500 0.8000 1.0000
vt 0.8611 0.8000 1.0000
vt 0.9167 0.8000 1.0000
vt 0.9722 0.8000 1.0000
vt 0.0278 0.8000 1.0000
vt -0.0278 0.8000 1.0000
vt 0.0833 0.8000 1.0000
vt 0.1389 0.8000 1.0000
vt 0.1944 0.8000 1.0000
vt 0.2500 0.8000 1.0000
vt 0.3056 0.8000 1.0000
vt 0.3611 0.8000 1.0000
vt 0.4167 0.8000 1.0000
vt 0.4722 0.8000 1.0000
vt 0.5278 0.8000 1.0000
vt 0.5833 0.8000 1.0000
vt 0.6389 0.8000 1.0000
vt 0.6944 0.8000 1.0000
vt 0.8056 1.0000 1.0000
vt 0.7500 1.0000 1.0000
vt 0.8611 1.0000 1.0000
vt 0.9167 1.0000 1.0000
vt 0.9722 1.0000 1.0000
vt 0.0278 1.0000 1.0000
vt -0.0278 1.0000 1.0000
vt 0.0833 1.0000 1.0000
vt 0.1389 1.0000 1.0000
vt 0.1944 1.0000 1.0000
vt 0.2500 1.0000 1.0000
vt 0.3056 1.0000 1.0000
vt 0.3611 1.0000 1.0000
vt 0.4167 1.0000 1.0000
vt 0.4722 1.0000 1.0000
vt 0.5278 1.0000 1.0000
vt 0.5833 1.0000 1.0000
vt 0.6389 1.0000 1.0000
vt 0.6944 1.0000 1.0000
vt 0.5000 1.0000 0.0000
vt 0.9708 1.0000 0.8794
# 117 texture coords

g Cylinder002
usemtl 02___Default
s 1
f -110/-117/-38 -109/-116/-38 -108/-115/-38 -107/-114/-38 
f -110/-117/-38 -106/-113/-38 -105/-112/-38 -109/-116/-38 
f -110/-117/-38 -104/-111/-38 -103/-110/-38 -106/-109/-38 
f -110/-117/-38 -102/-108/-38 -101/-107/-38 -104/-111/-38 
f -110/-117/-38 -100/-106/-38 -99/-105/-38 -102/-108/-38 
f -110/-117/-38 -98/-104/-38 -97/-103/-38 -100/-106/-38 
f -110/-117/-38 -96/-102/-38 -95/-101/-38 -98/-104/-38 
f -110/-117/-38 -94/-100/-38 -93/-99/-38 -96/-102/-38 
f -110/-117/-38 -107/-114/-38 -92/-98/-38 -94/-100/-38 
s 8
f -107/-114/-37 -108/-115/-36 -91/-97/-36 -90/-96/-37 
f -108/-115/-36 -109/-116/-35 -89/-95/-35 -91/-97/-36 
f -109/-116/-35 -105/-112/-34 -88/-94/-34 -89/-95/-35 
f -105/-112/-34 -106/-113/-33 -87/-93/-33 -88/-94/-34 
f -106/-109/-33 -103/-110/-32 -86/-92/-32 -87/-91/-33 
f -103/-110/-32 -104/-111/-31 -85/-90/-31 -86/-92/-32 
f -104/-111/-31 -101/-107/-30 -84/-89/-30 -85/-90/-31 
f -101/-107/-30 -102/-108/-29 -83/-88/-29 -84/-89/-30 
f -102/-108/-29 -99/-105/-28 -82/-87/-28 -83/-88/-29 
f -99/-105/-28 -100/-106/-27 -81/-86/-27 -82/-87/-28 
f -100/-106/-27 -97/-103/-26 -80/-85/-26 -81/-86/-27 
f -97/-103/-26 -98/-104/-25 -79/-84/-25 -80/-85/-26 
f -98/-104/-25 -95/-101/-24 -78/-83/-24 -79/-84/-25 
f -95/-101/-24 -96/-102/-23 -77/-82/-23 -78/-83/-24 
f -96/-102/-23 -93/-99/-22 -76/-81/-22 -77/-82/-23 
f -93/-99/-22 -94/-100/-21 -75/-80/-21 -76/-81/-22 
f -94/-100/-21 -92/-98/-20 -74/-79/-20 -75/-80/-21 
f -92/-98/-20 -107/-114/-37 -90/-96/-37 -74/-79/-20 
f -90/-96/-37 -91/-97/-36 -73/-78/-36 -72/-77/-37 
f -91/-97/-36 -89/-95/-35 -71/-76/-35 -73/-78/-36 
f -89/-95/-35 -88/-94/-34 -70/-75/-34 -71/-76/-35 
f -88/-94/-34 -87/-93/-33 -69/-74/-33 -70/-75/-34 
f -87/-91/-33 -86/-92/-32 -68/-73/-32 -69/-72/-33 
f -86/-92/-32 -85/-90/-31 -67/-71/-31 -68/-73/-32 
f -85/-90/-31 -84/-89/-30 -66/-70/-30 -67/-71/-31 
f -84/-89/-30 -83/-88/-29 -65/-69/-29 -66/-70/-30 
f -83/-88/-29 -82/-87/-28 -64/-68/-28 -65/-69/-29 
f -82/-87/-28 -81/-86/-27 -63/-67/-27 -64/-68/-28 
f -81/-86/-27 -80/-85/-26 -62/-66/-26 -63/-67/-27 
f -80/-85/-26 -79/-84/-25 -61/-65/-25 -62/-66/-26 
f -79/-84/-25 -78/-83/-24 -60/-64/-24 -61/-65/-25 
f -78/-83/-24 -77/-82/-23 -59/-63/-23 -60/-64/-24 
f -77/-82/-23 -76/-81/-22 -58/-62/-22 -59/-63/-23 
f -76/-81/-22 -75/-80/-21 -57/-61/-21 -58/-62/-22 
f -75/-80/-21 -74/-79/-20 -56/-60/-20 -57/-61/-21 
f -74/-79/-20 -90/-96/-37 -72/-77/-37 -56/-60/-20 
f -72/-77/-37 -73/-78/-36 -55/-59/-36 -54/-58/-19 
f -73/-78/-36 -71/-76/-35 -53/-57/-35 -55/-59/-36 
f -71/-76/-35 -70/-75/-34 -52/-56/-18 -53/-57/-35 
f -70/-75/-34 -69/-74/-33 -51/-55/-33 -52/-56/-18 
f -69/-72/-33 -68/-73/-32 -50/-54/-17 -51/-53/-33 
f -68/-73/-32 -67/-71/-31 -49/-52/-31 -50/-54/-17 
f -67/-71/-31 -66/-70/-30 -48/-51/-16 -49/-52/-31 
f -66/-70/-30 -65/-69/-29 -47/-50/-15 -48/-51/-16 
f -65/-69/-29 -64/-68/-28 -46/-49/-14 -47/-50/-15 
f -64/-68/-28 -63/-67/-27 -45/-48/-27 -46/-49/-14 
f -63/-67/-27 -62/-66/-26 -44/-47/-13 -45/-48/-27 
f -62/-66/-26 -61/-65/-25 -43/-46/-12 -44/-47/-13 
f -61/-65/-25 -60/-64/-24 -42/-45/-24 -43/-46/-12 
f -60/-64/-24 -59/-63/-23 -41/-44/-11 -42/-45/-24 
f -59/-63/-23 -58/-62/-22 -40/-43/-22 -41/-44/-11 
f -58/-62/-22 -57/-61/-21 -39/-42/-10 -40/-43/-22 
f -57/-61/-21 -56/-60/-20 -38/-41/-9 -39/-42/-10 
f -56/-60/-20 -72/-77/-37 -54/-58/-19 -38/-41/-9 
f -54/-58/-19 -55/-59/-36 -37/-40/-8 -36/-39/-19 
f -55/-59/-36 -53/-57/-35 -35/-38/-7 -37/-40/-8 
f -53/-57/-35 -52/-56/-18 -34/-37/-18 -35/-38/-7 
f -52/-56/-18 -51/-55/-33 -33/-36/-6 -34/-37/-18 
f -51/-53/-33 -50/-54/-17 -32/-35/-17 -33/-34/-6 
f -50/-54/-17 -49/-52/-31 -31/-33/-5 -32/-35/-17 
f -49/-52/-31 -48/-51/-16 -30/-32/-16 -31/-33/-5 
f -48/-51/-16 -47/-50/-15 -29/-31/-15 -30/-32/-16 
f -47/-50/-15 -46/-49/-14 -28/-30/-14 -29/-31/-15 
f -46/-49/-14 -45/-48/-27 -27/-29/-4 -28/-30/-14 
f -45/-48/-27 -44/-47/-13 -26/-28/-13 -27/-29/-4 
f -44/-47/-13 -43/-46/-12 -25/-27/-12 -26/-28/-13 
f -43/-46/-12 -42/-45/-24 -24/-26/-3 -25/-27/-12 
f -42/-45/-24 -41/-44/-11 -23/-25/-11 -24/-26/-3 
f -41/-44/-11 -40/-43/-22 -22/-24/-2 -23/-25/-11 
f -40/-43/-22 -39/-42/-10 -21/-23/-10 -22/-24/-2 
f -39/-42/-10 -38/-41/-9 -20/-22/-9 -21/-23/-10 
f -38/-41/-9 -54/-58/-19 -36/-39/-19 -20/-22/-9 
f -36/-39/-19 -37/-40/-8 -19/-21/-36 -18/-20/-37 
f -37/-40/-8 -35/-38/-7 -17/-19/-35 -19/-21/-36 
f -35/-38/-7 -34/-37/-18 -16/-18/-34 -17/-19/-35 
f -34/-37/-18 -33/-36/-6 -15/-17/-33 -16/-18/-34 
f -33/-34/-6 -32/-35/-17 -14/-16/-32 -15/-15/-33 
f -32/-35/-17 -31/-33/-5 -13/-14/-31 -14/-16/-32 
f -31/-33/-5 -30/-32/-16 -12/-13/-30 -13/-14/-31 
f -30/-32/-16 -29/-31/-15 -11/-12/-29 -12/-13/-30 
f -29/-31/-15 -28/-30/-14 -10/-11/-28 -11/-12/-29 
f -28/-30/-14 -27/-29/-4 -9/-10/-27 -10/-11/-28 
f -27/-29/-4 -26/-28/-13 -8/-9/-26 -9/-10/-27 
f -26/-28/-13 -25/-27/-12 -7/-8/-25 -8/-9/-26 
f -25/-27/-12 -24/-26/-3 -6/-7/-24 -7/-8/-25 
f -24/-26/-3 -23/-25/-11 -5/-6/-23 -6/-7/-24 
f -23/-25/-11 -22/-24/-2 -4/-5/-22 -5/-6/-23 
f -22/-24/-2 -21/-23/-10 -3/-4/-21 -4/-5/-22 
f -21/-23/-10 -20/-22/-9 -2/-3/-20 -3/-4/-21 
f -20/-22/-9 -36/-39/-19 -18/-20/-37 -2/-3/-20 
s 1
f -1/-2/-1 -2/-3/-1 -18/-20/-1 -19/-21/-1 
f -1/-2/-1 -19/-21/-1 -17/-19/-1 -16/-18/-1 
f -1/-2/-1 -16/-18/-1 -15/-17/-1 -14/-1/-1 
f -1/-2/-1 -14/-16/-1 -13/-14/-1 -12/-13/-1 
f -1/-2/-1 -12/-13/-1 -11/-12/-1 -10/-11/-1 
f -1/-2/-1 -10/-11/-1 -9/-10/-1 -8/-9/-1 
f -1/-2/-1 -8/-9/-1 -7/-8/-1 -6/-7/-1 
f -1/-2/-1 -6/-7/-1 -5/-6/-1 -4/-5/-1 
f -1/-2/-1 -4/-5/-1 -3/-4/-1 -2/-3/-1 
# 108 polygons

